# Tiled2Unity generated file. Do not modify by hand.
# Wavefront file for 'Pueblo_mesh_0024.obj'

# Vertices (Count = 216)
v -2304 -3040 0
v -2320 -3040 0
v -2320 -3024 0
v -2304 -3024 0
v -2320 -3040 0
v -2336 -3040 0
v -2336 -3024 0
v -2320 -3024 0
v -2336 -3040 0
v -2352 -3040 0
v -2352 -3024 0
v -2336 -3024 0
v -2304 -3056 0
v -2320 -3056 0
v -2320 -3040 0
v -2304 -3040 0
v -2320 -3056 0
v -2336 -3056 0
v -2336 -3040 0
v -2320 -3040 0
v -2336 -3056 0
v -2352 -3056 0
v -2352 -3040 0
v -2336 -3040 0
v -2304 -3072 0
v -2320 -3072 0
v -2320 -3056 0
v -2304 -3056 0
v -2320 -3072 0
v -2336 -3072 0
v -2336 -3056 0
v -2320 -3056 0
v -2336 -3072 0
v -2352 -3072 0
v -2352 -3056 0
v -2336 -3056 0
v -1728 -3120 0
v -1744 -3120 0
v -1744 -3104 0
v -1728 -3104 0
v -1744 -3120 0
v -1760 -3120 0
v -1760 -3104 0
v -1744 -3104 0
v -1760 -3120 0
v -1776 -3120 0
v -1776 -3104 0
v -1760 -3104 0
v -1728 -3136 0
v -1744 -3136 0
v -1744 -3120 0
v -1728 -3120 0
v -1744 -3136 0
v -1760 -3136 0
v -1760 -3120 0
v -1744 -3120 0
v -1760 -3136 0
v -1776 -3136 0
v -1776 -3120 0
v -1760 -3120 0
v -1728 -3152 0
v -1744 -3152 0
v -1744 -3136 0
v -1728 -3136 0
v -1744 -3152 0
v -1760 -3152 0
v -1760 -3136 0
v -1744 -3136 0
v -1760 -3152 0
v -1776 -3152 0
v -1776 -3136 0
v -1760 -3136 0
v -2736 -3168 0
v -2752 -3168 0
v -2752 -3152 0
v -2736 -3152 0
v -2752 -3168 0
v -2768 -3168 0
v -2768 -3152 0
v -2752 -3152 0
v -2768 -3168 0
v -2784 -3168 0
v -2784 -3152 0
v -2768 -3152 0
v -2736 -3184 0
v -2752 -3184 0
v -2752 -3168 0
v -2736 -3168 0
v -2752 -3184 0
v -2768 -3184 0
v -2768 -3168 0
v -2752 -3168 0
v -2768 -3184 0
v -2784 -3184 0
v -2784 -3168 0
v -2768 -3168 0
v -2736 -3200 0
v -2752 -3200 0
v -2752 -3184 0
v -2736 -3184 0
v -2752 -3200 0
v -2768 -3200 0
v -2768 -3184 0
v -2752 -3184 0
v -2768 -3200 0
v -2784 -3200 0
v -2784 -3184 0
v -2768 -3184 0
v -2064 -3376 0
v -2080 -3376 0
v -2080 -3360 0
v -2064 -3360 0
v -2080 -3376 0
v -2096 -3376 0
v -2096 -3360 0
v -2080 -3360 0
v -2096 -3376 0
v -2112 -3376 0
v -2112 -3360 0
v -2096 -3360 0
v -2064 -3392 0
v -2080 -3392 0
v -2080 -3376 0
v -2064 -3376 0
v -2080 -3392 0
v -2096 -3392 0
v -2096 -3376 0
v -2080 -3376 0
v -2096 -3392 0
v -2112 -3392 0
v -2112 -3376 0
v -2096 -3376 0
v -2064 -3408 0
v -2080 -3408 0
v -2080 -3392 0
v -2064 -3392 0
v -2080 -3408 0
v -2096 -3408 0
v -2096 -3392 0
v -2080 -3392 0
v -2096 -3408 0
v -2112 -3408 0
v -2112 -3392 0
v -2096 -3392 0
v -2496 -3568 0
v -2512 -3568 0
v -2512 -3552 0
v -2496 -3552 0
v -2512 -3568 0
v -2528 -3568 0
v -2528 -3552 0
v -2512 -3552 0
v -2528 -3568 0
v -2544 -3568 0
v -2544 -3552 0
v -2528 -3552 0
v -2496 -3584 0
v -2512 -3584 0
v -2512 -3568 0
v -2496 -3568 0
v -2512 -3584 0
v -2528 -3584 0
v -2528 -3568 0
v -2512 -3568 0
v -2528 -3584 0
v -2544 -3584 0
v -2544 -3568 0
v -2528 -3568 0
v -2496 -3600 0
v -2512 -3600 0
v -2512 -3584 0
v -2496 -3584 0
v -2512 -3600 0
v -2528 -3600 0
v -2528 -3584 0
v -2512 -3584 0
v -2528 -3600 0
v -2544 -3600 0
v -2544 -3584 0
v -2528 -3584 0
v -2000 -3680 0
v -2016 -3680 0
v -2016 -3664 0
v -2000 -3664 0
v -2016 -3680 0
v -2032 -3680 0
v -2032 -3664 0
v -2016 -3664 0
v -2032 -3680 0
v -2048 -3680 0
v -2048 -3664 0
v -2032 -3664 0
v -2000 -3696 0
v -2016 -3696 0
v -2016 -3680 0
v -2000 -3680 0
v -2016 -3696 0
v -2032 -3696 0
v -2032 -3680 0
v -2016 -3680 0
v -2032 -3696 0
v -2048 -3696 0
v -2048 -3680 0
v -2032 -3680 0
v -2000 -3712 0
v -2016 -3712 0
v -2016 -3696 0
v -2000 -3696 0
v -2016 -3712 0
v -2032 -3712 0
v -2032 -3696 0
v -2016 -3696 0
v -2032 -3712 0
v -2048 -3712 0
v -2048 -3696 0
v -2032 -3696 0

# Texture cooridinates (Count = 36)
vt 0.0001220703 0.8050001
vt 0.3198779 0.8050001
vt 0.3198779 0.9998779
vt 0.0001220703 0.9998779
vt 0.3201221 0.8050001
vt 0.6398779 0.8050001
vt 0.6398779 0.9998779
vt 0.3201221 0.9998779
vt 0.6401221 0.8050001
vt 0.9598779 0.8050001
vt 0.9598779 0.9998779
vt 0.6401221 0.9998779
vt 0.0001220703 0.6098782
vt 0.3198779 0.6098782
vt 0.3198779 0.804756
vt 0.0001220703 0.804756
vt 0.3201221 0.6098782
vt 0.6398779 0.6098782
vt 0.6398779 0.804756
vt 0.3201221 0.804756
vt 0.6401221 0.6098782
vt 0.9598779 0.6098782
vt 0.9598779 0.804756
vt 0.6401221 0.804756
vt 0.0001220703 0.4147562
vt 0.3198779 0.4147562
vt 0.3198779 0.609634
vt 0.0001220703 0.609634
vt 0.3201221 0.4147562
vt 0.6398779 0.4147562
vt 0.6398779 0.609634
vt 0.3201221 0.609634
vt 0.6401221 0.4147562
vt 0.9598779 0.4147562
vt 0.9598779 0.609634
vt 0.6401221 0.609634

# Normal
vn 0 0 -1

# Mesh description
g Pueblo_mesh_0024

# Faces
f 1/1/1 2/2/1 3/3/1 4/4/1
f 5/5/1 6/6/1 7/7/1 8/8/1
f 9/9/1 10/10/1 11/11/1 12/12/1
f 13/13/1 14/14/1 15/15/1 16/16/1
f 17/17/1 18/18/1 19/19/1 20/20/1
f 21/21/1 22/22/1 23/23/1 24/24/1
f 25/25/1 26/26/1 27/27/1 28/28/1
f 29/29/1 30/30/1 31/31/1 32/32/1
f 33/33/1 34/34/1 35/35/1 36/36/1
f 37/1/1 38/2/1 39/3/1 40/4/1
f 41/5/1 42/6/1 43/7/1 44/8/1
f 45/9/1 46/10/1 47/11/1 48/12/1
f 49/13/1 50/14/1 51/15/1 52/16/1
f 53/17/1 54/18/1 55/19/1 56/20/1
f 57/21/1 58/22/1 59/23/1 60/24/1
f 61/25/1 62/26/1 63/27/1 64/28/1
f 65/29/1 66/30/1 67/31/1 68/32/1
f 69/33/1 70/34/1 71/35/1 72/36/1
f 73/1/1 74/2/1 75/3/1 76/4/1
f 77/5/1 78/6/1 79/7/1 80/8/1
f 81/9/1 82/10/1 83/11/1 84/12/1
f 85/13/1 86/14/1 87/15/1 88/16/1
f 89/17/1 90/18/1 91/19/1 92/20/1
f 93/21/1 94/22/1 95/23/1 96/24/1
f 97/25/1 98/26/1 99/27/1 100/28/1
f 101/29/1 102/30/1 103/31/1 104/32/1
f 105/33/1 106/34/1 107/35/1 108/36/1
f 109/1/1 110/2/1 111/3/1 112/4/1
f 113/5/1 114/6/1 115/7/1 116/8/1
f 117/9/1 118/10/1 119/11/1 120/12/1
f 121/13/1 122/14/1 123/15/1 124/16/1
f 125/17/1 126/18/1 127/19/1 128/20/1
f 129/21/1 130/22/1 131/23/1 132/24/1
f 133/25/1 134/26/1 135/27/1 136/28/1
f 137/29/1 138/30/1 139/31/1 140/32/1
f 141/33/1 142/34/1 143/35/1 144/36/1
f 145/1/1 146/2/1 147/3/1 148/4/1
f 149/5/1 150/6/1 151/7/1 152/8/1
f 153/9/1 154/10/1 155/11/1 156/12/1
f 157/13/1 158/14/1 159/15/1 160/16/1
f 161/17/1 162/18/1 163/19/1 164/20/1
f 165/21/1 166/22/1 167/23/1 168/24/1
f 169/25/1 170/26/1 171/27/1 172/28/1
f 173/29/1 174/30/1 175/31/1 176/32/1
f 177/33/1 178/34/1 179/35/1 180/36/1
f 181/1/1 182/2/1 183/3/1 184/4/1
f 185/5/1 186/6/1 187/7/1 188/8/1
f 189/9/1 190/10/1 191/11/1 192/12/1
f 193/13/1 194/14/1 195/15/1 196/16/1
f 197/17/1 198/18/1 199/19/1 200/20/1
f 201/21/1 202/22/1 203/23/1 204/24/1
f 205/25/1 206/26/1 207/27/1 208/28/1
f 209/29/1 210/30/1 211/31/1 212/32/1
f 213/33/1 214/34/1 215/35/1 216/36/1

