# Tiled2Unity generated file. Do not modify by hand.
# Wavefront file for 'Pueblo_mesh_0011.obj'

# Vertices (Count = 400)
v -2416 -2784 0
v -2432 -2784 0
v -2432 -2768 0
v -2416 -2768 0
v -2336 -2816 0
v -2352 -2816 0
v -2352 -2800 0
v -2336 -2800 0
v -2448 -2864 0
v -2464 -2864 0
v -2464 -2848 0
v -2448 -2848 0
v -2368 -2896 0
v -2384 -2896 0
v -2384 -2880 0
v -2368 -2880 0
v -2528 -2896 0
v -2544 -2896 0
v -2544 -2880 0
v -2528 -2880 0
v -2416 -2944 0
v -2432 -2944 0
v -2432 -2928 0
v -2416 -2928 0
v -2496 -2960 0
v -2512 -2960 0
v -2512 -2944 0
v -2496 -2944 0
v -1840 -2976 0
v -1856 -2976 0
v -1856 -2960 0
v -1840 -2960 0
v -2592 -2976 0
v -2608 -2976 0
v -2608 -2960 0
v -2592 -2960 0
v -2336 -2992 0
v -2352 -2992 0
v -2352 -2976 0
v -2336 -2976 0
v -2128 -3024 0
v -2144 -3024 0
v -2144 -3008 0
v -2128 -3008 0
v -2144 -3024 0
v -2160 -3024 0
v -2160 -3008 0
v -2144 -3008 0
v -2160 -3024 0
v -2176 -3024 0
v -2176 -3008 0
v -2160 -3008 0
v -2656 -3024 0
v -2672 -3024 0
v -2672 -3008 0
v -2656 -3008 0
v -2128 -3040 0
v -2144 -3040 0
v -2144 -3024 0
v -2128 -3024 0
v -2144 -3040 0
v -2160 -3040 0
v -2160 -3024 0
v -2144 -3024 0
v -2160 -3040 0
v -2176 -3040 0
v -2176 -3024 0
v -2160 -3024 0
v -2128 -3056 0
v -2144 -3056 0
v -2144 -3040 0
v -2128 -3040 0
v -2144 -3056 0
v -2160 -3056 0
v -2160 -3040 0
v -2144 -3040 0
v -2160 -3056 0
v -2176 -3056 0
v -2176 -3040 0
v -2160 -3040 0
v -1792 -3072 0
v -1808 -3072 0
v -1808 -3056 0
v -1792 -3056 0
v -2128 -3072 0
v -2144 -3072 0
v -2144 -3056 0
v -2128 -3056 0
v -2144 -3072 0
v -2160 -3072 0
v -2160 -3056 0
v -2144 -3056 0
v -2160 -3072 0
v -2176 -3072 0
v -2176 -3056 0
v -2160 -3056 0
v -2608 -3072 0
v -2624 -3072 0
v -2624 -3056 0
v -2608 -3056 0
v -2128 -3088 0
v -2144 -3088 0
v -2144 -3072 0
v -2128 -3072 0
v -2144 -3088 0
v -2160 -3088 0
v -2160 -3072 0
v -2144 -3072 0
v -2160 -3088 0
v -2176 -3088 0
v -2176 -3072 0
v -2160 -3072 0
v -1888 -3104 0
v -1904 -3104 0
v -1904 -3088 0
v -1888 -3088 0
v -2128 -3104 0
v -2144 -3104 0
v -2144 -3088 0
v -2128 -3088 0
v -2144 -3104 0
v -2160 -3104 0
v -2160 -3088 0
v -2144 -3088 0
v -2160 -3104 0
v -2176 -3104 0
v -2176 -3088 0
v -2160 -3088 0
v -2288 -3296 0
v -2304 -3296 0
v -2304 -3280 0
v -2288 -3280 0
v -2304 -3296 0
v -2320 -3296 0
v -2320 -3280 0
v -2304 -3280 0
v -2320 -3296 0
v -2336 -3296 0
v -2336 -3280 0
v -2320 -3280 0
v -2336 -3296 0
v -2352 -3296 0
v -2352 -3280 0
v -2336 -3280 0
v -2352 -3296 0
v -2368 -3296 0
v -2368 -3280 0
v -2352 -3280 0
v -2288 -3312 0
v -2304 -3312 0
v -2304 -3296 0
v -2288 -3296 0
v -2304 -3312 0
v -2320 -3312 0
v -2320 -3296 0
v -2304 -3296 0
v -2320 -3312 0
v -2336 -3312 0
v -2336 -3296 0
v -2320 -3296 0
v -2336 -3312 0
v -2352 -3312 0
v -2352 -3296 0
v -2336 -3296 0
v -2352 -3312 0
v -2368 -3312 0
v -2368 -3296 0
v -2352 -3296 0
v -2288 -3328 0
v -2304 -3328 0
v -2304 -3312 0
v -2288 -3312 0
v -2304 -3328 0
v -2320 -3328 0
v -2320 -3312 0
v -2304 -3312 0
v -2320 -3328 0
v -2336 -3328 0
v -2336 -3312 0
v -2320 -3312 0
v -2336 -3328 0
v -2352 -3328 0
v -2352 -3312 0
v -2336 -3312 0
v -2352 -3328 0
v -2368 -3328 0
v -2368 -3312 0
v -2352 -3312 0
v -2528 -3424 0
v -2544 -3424 0
v -2544 -3408 0
v -2528 -3408 0
v -2544 -3424 0
v -2560 -3424 0
v -2560 -3408 0
v -2544 -3408 0
v -2560 -3424 0
v -2576 -3424 0
v -2576 -3408 0
v -2560 -3408 0
v -2576 -3424 0
v -2592 -3424 0
v -2592 -3408 0
v -2576 -3408 0
v -2592 -3424 0
v -2608 -3424 0
v -2608 -3408 0
v -2592 -3408 0
v -2608 -3424 0
v -2624 -3424 0
v -2624 -3408 0
v -2608 -3408 0
v -2528 -3440 0
v -2544 -3440 0
v -2544 -3424 0
v -2528 -3424 0
v -2544 -3440 0
v -2560 -3440 0
v -2560 -3424 0
v -2544 -3424 0
v -2560 -3440 0
v -2576 -3440 0
v -2576 -3424 0
v -2560 -3424 0
v -2576 -3440 0
v -2592 -3440 0
v -2592 -3424 0
v -2576 -3424 0
v -2592 -3440 0
v -2608 -3440 0
v -2608 -3424 0
v -2592 -3424 0
v -2608 -3440 0
v -2624 -3440 0
v -2624 -3424 0
v -2608 -3424 0
v -2528 -3456 0
v -2544 -3456 0
v -2544 -3440 0
v -2528 -3440 0
v -2544 -3456 0
v -2560 -3456 0
v -2560 -3440 0
v -2544 -3440 0
v -2560 -3456 0
v -2576 -3456 0
v -2576 -3440 0
v -2560 -3440 0
v -2576 -3456 0
v -2592 -3456 0
v -2592 -3440 0
v -2576 -3440 0
v -2592 -3456 0
v -2608 -3456 0
v -2608 -3440 0
v -2592 -3440 0
v -2608 -3456 0
v -2624 -3456 0
v -2624 -3440 0
v -2608 -3440 0
v -2528 -3472 0
v -2544 -3472 0
v -2544 -3456 0
v -2528 -3456 0
v -2544 -3472 0
v -2560 -3472 0
v -2560 -3456 0
v -2544 -3456 0
v -2560 -3472 0
v -2576 -3472 0
v -2576 -3456 0
v -2560 -3456 0
v -2576 -3472 0
v -2592 -3472 0
v -2592 -3456 0
v -2576 -3456 0
v -2592 -3472 0
v -2608 -3472 0
v -2608 -3456 0
v -2592 -3456 0
v -2608 -3472 0
v -2624 -3472 0
v -2624 -3456 0
v -2608 -3456 0
v -2288 -3488 0
v -2304 -3488 0
v -2304 -3472 0
v -2288 -3472 0
v -2528 -3488 0
v -2544 -3488 0
v -2544 -3472 0
v -2528 -3472 0
v -2544 -3488 0
v -2560 -3488 0
v -2560 -3472 0
v -2544 -3472 0
v -2560 -3488 0
v -2576 -3488 0
v -2576 -3472 0
v -2560 -3472 0
v -2576 -3488 0
v -2592 -3488 0
v -2592 -3472 0
v -2576 -3472 0
v -2592 -3488 0
v -2608 -3488 0
v -2608 -3472 0
v -2592 -3472 0
v -2608 -3488 0
v -2624 -3488 0
v -2624 -3472 0
v -2608 -3472 0
v -2528 -3504 0
v -2544 -3504 0
v -2544 -3488 0
v -2528 -3488 0
v -2544 -3504 0
v -2560 -3504 0
v -2560 -3488 0
v -2544 -3488 0
v -2560 -3504 0
v -2576 -3504 0
v -2576 -3488 0
v -2560 -3488 0
v -2576 -3504 0
v -2592 -3504 0
v -2592 -3488 0
v -2576 -3488 0
v -2592 -3504 0
v -2608 -3504 0
v -2608 -3488 0
v -2592 -3488 0
v -2608 -3504 0
v -2624 -3504 0
v -2624 -3488 0
v -2608 -3488 0
v -2336 -3520 0
v -2352 -3520 0
v -2352 -3504 0
v -2336 -3504 0
v -2528 -3520 0
v -2544 -3520 0
v -2544 -3504 0
v -2528 -3504 0
v -2544 -3520 0
v -2560 -3520 0
v -2560 -3504 0
v -2544 -3504 0
v -2560 -3520 0
v -2576 -3520 0
v -2576 -3504 0
v -2560 -3504 0
v -2576 -3520 0
v -2592 -3520 0
v -2592 -3504 0
v -2576 -3504 0
v -2592 -3520 0
v -2608 -3520 0
v -2608 -3504 0
v -2592 -3504 0
v -2608 -3520 0
v -2624 -3520 0
v -2624 -3504 0
v -2608 -3504 0
v -1936 -3536 0
v -1952 -3536 0
v -1952 -3520 0
v -1936 -3520 0
v -2048 -3552 0
v -2064 -3552 0
v -2064 -3536 0
v -2048 -3536 0
v -1984 -3568 0
v -2000 -3568 0
v -2000 -3552 0
v -1984 -3552 0
v -2016 -3616 0
v -2032 -3616 0
v -2032 -3600 0
v -2016 -3600 0
v -1920 -3632 0
v -1936 -3632 0
v -1936 -3616 0
v -1920 -3616 0
v -2384 -3632 0
v -2400 -3632 0
v -2400 -3616 0
v -2384 -3616 0
v -2288 -3648 0
v -2304 -3648 0
v -2304 -3632 0
v -2288 -3632 0
v -2432 -3680 0
v -2448 -3680 0
v -2448 -3664 0
v -2432 -3664 0
v -2352 -3712 0
v -2368 -3712 0
v -2368 -3696 0
v -2352 -3696 0

# Texture cooridinates (Count = 16)
vt 0.8001221 0.6001221
vt 0.9998779 0.6001221
vt 0.9998779 0.7998779
vt 0.8001221 0.7998779
vt 0.0001220703 0.2001221
vt 0.1998779 0.2001221
vt 0.1998779 0.3998779
vt 0.0001220703 0.3998779
vt 0.6001221 0.400122
vt 0.7998779 0.400122
vt 0.7998779 0.599878
vt 0.6001221 0.599878
vt 0.4001221 0.400122
vt 0.599878 0.400122
vt 0.599878 0.599878
vt 0.4001221 0.599878

# Normal
vn 0 0 -1

# Mesh description
g Pueblo_mesh_0011

# Faces
f 1/1/1 2/2/1 3/3/1 4/4/1
f 5/1/1 6/2/1 7/3/1 8/4/1
f 9/1/1 10/2/1 11/3/1 12/4/1
f 13/1/1 14/2/1 15/3/1 16/4/1
f 17/1/1 18/2/1 19/3/1 20/4/1
f 21/1/1 22/2/1 23/3/1 24/4/1
f 25/1/1 26/2/1 27/3/1 28/4/1
f 29/1/1 30/2/1 31/3/1 32/4/1
f 33/1/1 34/2/1 35/3/1 36/4/1
f 37/1/1 38/2/1 39/3/1 40/4/1
f 41/5/1 42/6/1 43/7/1 44/8/1
f 45/5/1 46/6/1 47/7/1 48/8/1
f 49/5/1 50/6/1 51/7/1 52/8/1
f 53/1/1 54/2/1 55/3/1 56/4/1
f 57/9/1 58/10/1 59/11/1 60/12/1
f 61/9/1 62/10/1 63/11/1 64/12/1
f 65/9/1 66/10/1 67/11/1 68/12/1
f 69/9/1 70/10/1 71/11/1 72/12/1
f 73/9/1 74/10/1 75/11/1 76/12/1
f 77/9/1 78/10/1 79/11/1 80/12/1
f 81/1/1 82/2/1 83/3/1 84/4/1
f 85/9/1 86/10/1 87/11/1 88/12/1
f 89/9/1 90/10/1 91/11/1 92/12/1
f 93/9/1 94/10/1 95/11/1 96/12/1
f 97/1/1 98/2/1 99/3/1 100/4/1
f 101/9/1 102/10/1 103/11/1 104/12/1
f 105/9/1 106/10/1 107/11/1 108/12/1
f 109/9/1 110/10/1 111/11/1 112/12/1
f 113/1/1 114/2/1 115/3/1 116/4/1
f 117/13/1 118/14/1 119/15/1 120/16/1
f 121/13/1 122/14/1 123/15/1 124/16/1
f 125/13/1 126/14/1 127/15/1 128/16/1
f 129/5/1 130/6/1 131/7/1 132/8/1
f 133/5/1 134/6/1 135/7/1 136/8/1
f 137/5/1 138/6/1 139/7/1 140/8/1
f 141/5/1 142/6/1 143/7/1 144/8/1
f 145/5/1 146/6/1 147/7/1 148/8/1
f 149/9/1 150/10/1 151/11/1 152/12/1
f 153/9/1 154/10/1 155/11/1 156/12/1
f 157/9/1 158/10/1 159/11/1 160/12/1
f 161/9/1 162/10/1 163/11/1 164/12/1
f 165/9/1 166/10/1 167/11/1 168/12/1
f 169/13/1 170/14/1 171/15/1 172/16/1
f 173/13/1 174/14/1 175/15/1 176/16/1
f 177/13/1 178/14/1 179/15/1 180/16/1
f 181/13/1 182/14/1 183/15/1 184/16/1
f 185/13/1 186/14/1 187/15/1 188/16/1
f 189/5/1 190/6/1 191/7/1 192/8/1
f 193/5/1 194/6/1 195/7/1 196/8/1
f 197/5/1 198/6/1 199/7/1 200/8/1
f 201/5/1 202/6/1 203/7/1 204/8/1
f 205/5/1 206/6/1 207/7/1 208/8/1
f 209/5/1 210/6/1 211/7/1 212/8/1
f 213/9/1 214/10/1 215/11/1 216/12/1
f 217/9/1 218/10/1 219/11/1 220/12/1
f 221/9/1 222/10/1 223/11/1 224/12/1
f 225/9/1 226/10/1 227/11/1 228/12/1
f 229/9/1 230/10/1 231/11/1 232/12/1
f 233/9/1 234/10/1 235/11/1 236/12/1
f 237/9/1 238/10/1 239/11/1 240/12/1
f 241/9/1 242/10/1 243/11/1 244/12/1
f 245/9/1 246/10/1 247/11/1 248/12/1
f 249/9/1 250/10/1 251/11/1 252/12/1
f 253/9/1 254/10/1 255/11/1 256/12/1
f 257/9/1 258/10/1 259/11/1 260/12/1
f 261/9/1 262/10/1 263/11/1 264/12/1
f 265/9/1 266/10/1 267/11/1 268/12/1
f 269/9/1 270/10/1 271/11/1 272/12/1
f 273/9/1 274/10/1 275/11/1 276/12/1
f 277/9/1 278/10/1 279/11/1 280/12/1
f 281/9/1 282/10/1 283/11/1 284/12/1
f 285/1/1 286/2/1 287/3/1 288/4/1
f 289/9/1 290/10/1 291/11/1 292/12/1
f 293/9/1 294/10/1 295/11/1 296/12/1
f 297/9/1 298/10/1 299/11/1 300/12/1
f 301/9/1 302/10/1 303/11/1 304/12/1
f 305/9/1 306/10/1 307/11/1 308/12/1
f 309/9/1 310/10/1 311/11/1 312/12/1
f 313/9/1 314/10/1 315/11/1 316/12/1
f 317/9/1 318/10/1 319/11/1 320/12/1
f 321/9/1 322/10/1 323/11/1 324/12/1
f 325/9/1 326/10/1 327/11/1 328/12/1
f 329/9/1 330/10/1 331/11/1 332/12/1
f 333/9/1 334/10/1 335/11/1 336/12/1
f 337/1/1 338/2/1 339/3/1 340/4/1
f 341/13/1 342/14/1 343/15/1 344/16/1
f 345/13/1 346/14/1 347/15/1 348/16/1
f 349/13/1 350/14/1 351/15/1 352/16/1
f 353/13/1 354/14/1 355/15/1 356/16/1
f 357/13/1 358/14/1 359/15/1 360/16/1
f 361/13/1 362/14/1 363/15/1 364/16/1
f 365/1/1 366/2/1 367/3/1 368/4/1
f 369/1/1 370/2/1 371/3/1 372/4/1
f 373/1/1 374/2/1 375/3/1 376/4/1
f 377/1/1 378/2/1 379/3/1 380/4/1
f 381/1/1 382/2/1 383/3/1 384/4/1
f 385/1/1 386/2/1 387/3/1 388/4/1
f 389/1/1 390/2/1 391/3/1 392/4/1
f 393/1/1 394/2/1 395/3/1 396/4/1
f 397/1/1 398/2/1 399/3/1 400/4/1

