# Tiled2Unity generated file. Do not modify by hand.
# Wavefront file for 'Pueblo_mesh_0004.obj'

# Vertices (Count = 8)
v -2240 -3296 0
v -2256 -3296 0
v -2256 -3280 0
v -2240 -3280 0
v -2256 -3296 0
v -2272 -3296 0
v -2272 -3280 0
v -2256 -3280 0

# Texture cooridinates (Count = 4)
vt 0.0001220703 0.0001220703
vt 0.9998779 0.0001220703
vt 0.9998779 0.9998779
vt 0.0001220703 0.9998779

# Normal
vn 0 0 -1

# Mesh description
g Pueblo_mesh_0004

# Faces
f 1/1/1 2/2/1 3/3/1 4/4/1
f 5/1/1 6/2/1 7/3/1 8/4/1

