# Tiled2Unity generated file. Do not modify by hand.
# Wavefront file for 'Pueblo_mesh_0013.obj'

# Vertices (Count = 28)
v -2112 -2928 0
v -2128 -2928 0
v -2128 -2912 0
v -2112 -2912 0
v -2000 -3024 0
v -2016 -3024 0
v -2016 -3008 0
v -2000 -3008 0
v -2528 -3120 0
v -2544 -3120 0
v -2544 -3104 0
v -2528 -3104 0
v -2688 -3232 0
v -2704 -3232 0
v -2704 -3216 0
v -2688 -3216 0
v -2272 -3344 0
v -2288 -3344 0
v -2288 -3328 0
v -2272 -3328 0
v -2416 -3568 0
v -2432 -3568 0
v -2432 -3552 0
v -2416 -3552 0
v -2144 -3664 0
v -2160 -3664 0
v -2160 -3648 0
v -2144 -3648 0

# Texture cooridinates (Count = 4)
vt 0.0001220703 0.0001220703
vt 0.9998779 0.0001220703
vt 0.9998779 0.9998779
vt 0.0001220703 0.9998779

# Normal
vn 0 0 -1

# Mesh description
g Pueblo_mesh_0013

# Faces
f 1/1/1 2/2/1 3/3/1 4/4/1
f 5/1/1 6/2/1 7/3/1 8/4/1
f 9/1/1 10/2/1 11/3/1 12/4/1
f 13/1/1 14/2/1 15/3/1 16/4/1
f 17/1/1 18/2/1 19/3/1 20/4/1
f 21/1/1 22/2/1 23/3/1 24/4/1
f 25/1/1 26/2/1 27/3/1 28/4/1

