# Tiled2Unity generated file. Do not modify by hand.
# Wavefront file for 'Pueblo_mesh_0007.obj'

# Vertices (Count = 256)
v -2208 -3200 0
v -2224 -3200 0
v -2224 -3184 0
v -2208 -3184 0
v -2224 -3200 0
v -2240 -3200 0
v -2240 -3184 0
v -2224 -3184 0
v -2240 -3200 0
v -2256 -3200 0
v -2256 -3184 0
v -2240 -3184 0
v -2256 -3200 0
v -2272 -3200 0
v -2272 -3184 0
v -2256 -3184 0
v -2272 -3200 0
v -2288 -3200 0
v -2288 -3184 0
v -2272 -3184 0
v -2288 -3200 0
v -2304 -3200 0
v -2304 -3184 0
v -2288 -3184 0
v -2304 -3200 0
v -2320 -3200 0
v -2320 -3184 0
v -2304 -3184 0
v -2320 -3200 0
v -2336 -3200 0
v -2336 -3184 0
v -2320 -3184 0
v -2336 -3200 0
v -2352 -3200 0
v -2352 -3184 0
v -2336 -3184 0
v -2352 -3200 0
v -2368 -3200 0
v -2368 -3184 0
v -2352 -3184 0
v -2368 -3200 0
v -2384 -3200 0
v -2384 -3184 0
v -2368 -3184 0
v -2208 -3216 0
v -2224 -3216 0
v -2224 -3200 0
v -2208 -3200 0
v -2224 -3216 0
v -2240 -3216 0
v -2240 -3200 0
v -2224 -3200 0
v -2240 -3216 0
v -2256 -3216 0
v -2256 -3200 0
v -2240 -3200 0
v -2256 -3216 0
v -2272 -3216 0
v -2272 -3200 0
v -2256 -3200 0
v -2272 -3216 0
v -2288 -3216 0
v -2288 -3200 0
v -2272 -3200 0
v -2288 -3216 0
v -2304 -3216 0
v -2304 -3200 0
v -2288 -3200 0
v -2304 -3216 0
v -2320 -3216 0
v -2320 -3200 0
v -2304 -3200 0
v -2320 -3216 0
v -2336 -3216 0
v -2336 -3200 0
v -2320 -3200 0
v -2336 -3216 0
v -2352 -3216 0
v -2352 -3200 0
v -2336 -3200 0
v -2352 -3216 0
v -2368 -3216 0
v -2368 -3200 0
v -2352 -3200 0
v -2368 -3216 0
v -2384 -3216 0
v -2384 -3200 0
v -2368 -3200 0
v -2208 -3232 0
v -2224 -3232 0
v -2224 -3216 0
v -2208 -3216 0
v -2224 -3232 0
v -2240 -3232 0
v -2240 -3216 0
v -2224 -3216 0
v -2240 -3232 0
v -2256 -3232 0
v -2256 -3216 0
v -2240 -3216 0
v -2256 -3232 0
v -2272 -3232 0
v -2272 -3216 0
v -2256 -3216 0
v -2272 -3232 0
v -2288 -3232 0
v -2288 -3216 0
v -2272 -3216 0
v -2288 -3232 0
v -2304 -3232 0
v -2304 -3216 0
v -2288 -3216 0
v -2304 -3232 0
v -2320 -3232 0
v -2320 -3216 0
v -2304 -3216 0
v -2320 -3232 0
v -2336 -3232 0
v -2336 -3216 0
v -2320 -3216 0
v -2336 -3232 0
v -2352 -3232 0
v -2352 -3216 0
v -2336 -3216 0
v -2352 -3232 0
v -2368 -3232 0
v -2368 -3216 0
v -2352 -3216 0
v -2368 -3232 0
v -2384 -3232 0
v -2384 -3216 0
v -2368 -3216 0
v -2208 -3248 0
v -2224 -3248 0
v -2224 -3232 0
v -2208 -3232 0
v -2224 -3248 0
v -2240 -3248 0
v -2240 -3232 0
v -2224 -3232 0
v -2240 -3248 0
v -2256 -3248 0
v -2256 -3232 0
v -2240 -3232 0
v -2256 -3248 0
v -2272 -3248 0
v -2272 -3232 0
v -2256 -3232 0
v -2272 -3248 0
v -2288 -3248 0
v -2288 -3232 0
v -2272 -3232 0
v -2288 -3248 0
v -2304 -3248 0
v -2304 -3232 0
v -2288 -3232 0
v -2304 -3248 0
v -2320 -3248 0
v -2320 -3232 0
v -2304 -3232 0
v -2320 -3248 0
v -2336 -3248 0
v -2336 -3232 0
v -2320 -3232 0
v -2336 -3248 0
v -2352 -3248 0
v -2352 -3232 0
v -2336 -3232 0
v -2352 -3248 0
v -2368 -3248 0
v -2368 -3232 0
v -2352 -3232 0
v -2368 -3248 0
v -2384 -3248 0
v -2384 -3232 0
v -2368 -3232 0
v -2208 -3264 0
v -2224 -3264 0
v -2224 -3248 0
v -2208 -3248 0
v -2224 -3264 0
v -2240 -3264 0
v -2240 -3248 0
v -2224 -3248 0
v -2240 -3264 0
v -2256 -3264 0
v -2256 -3248 0
v -2240 -3248 0
v -2256 -3264 0
v -2272 -3264 0
v -2272 -3248 0
v -2256 -3248 0
v -2272 -3264 0
v -2288 -3264 0
v -2288 -3248 0
v -2272 -3248 0
v -2288 -3264 0
v -2304 -3264 0
v -2304 -3248 0
v -2288 -3248 0
v -2320 -3264 0
v -2336 -3264 0
v -2336 -3248 0
v -2320 -3248 0
v -2352 -3264 0
v -2368 -3264 0
v -2368 -3248 0
v -2352 -3248 0
v -2368 -3264 0
v -2384 -3264 0
v -2384 -3248 0
v -2368 -3248 0
v -2208 -3280 0
v -2224 -3280 0
v -2224 -3264 0
v -2208 -3264 0
v -2224 -3280 0
v -2240 -3280 0
v -2240 -3264 0
v -2224 -3264 0
v -2240 -3280 0
v -2256 -3280 0
v -2256 -3264 0
v -2240 -3264 0
v -2256 -3280 0
v -2272 -3280 0
v -2272 -3264 0
v -2256 -3264 0
v -2272 -3280 0
v -2288 -3280 0
v -2288 -3264 0
v -2272 -3264 0
v -2288 -3280 0
v -2304 -3280 0
v -2304 -3264 0
v -2288 -3264 0
v -2304 -3280 0
v -2320 -3280 0
v -2320 -3264 0
v -2304 -3264 0
v -2320 -3280 0
v -2336 -3280 0
v -2336 -3264 0
v -2320 -3264 0
v -2336 -3280 0
v -2352 -3280 0
v -2352 -3264 0
v -2336 -3264 0
v -2352 -3280 0
v -2368 -3280 0
v -2368 -3264 0
v -2352 -3264 0
v -2368 -3280 0
v -2384 -3280 0
v -2384 -3264 0
v -2368 -3264 0

# Texture cooridinates (Count = 164)
vt 0.0001220703 0.8334554
vt 0.1427351 0.8334554
vt 0.1427351 0.9998779
vt 0.0001220703 0.9998779
vt 0.1429792 0.8334554
vt 0.2855922 0.8334554
vt 0.2855922 0.9998779
vt 0.1429792 0.9998779
vt 0.2858364 0.8334554
vt 0.4284494 0.8334554
vt 0.4284494 0.9998779
vt 0.2858364 0.9998779
vt 0.4286935 0.8334554
vt 0.5713065 0.8334554
vt 0.5713065 0.9998779
vt 0.4286935 0.9998779
vt 0.5715507 0.8334554
vt 0.7141637 0.8334554
vt 0.7141637 0.9998779
vt 0.5715507 0.9998779
vt 0.7144078 0.8334554
vt 0.8570208 0.8334554
vt 0.8570208 0.9998779
vt 0.7144078 0.9998779
vt 0.8572649 0.8334554
vt 0.9998779 0.8334554
vt 0.9998779 0.9998779
vt 0.8572649 0.9998779
vt 0.0001220703 0.6667887
vt 0.1427351 0.6667887
vt 0.1427351 0.8332112
vt 0.0001220703 0.8332112
vt 0.1429792 0.6667887
vt 0.2855922 0.6667887
vt 0.2855922 0.8332112
vt 0.1429792 0.8332112
vt 0.2858364 0.6667887
vt 0.4284494 0.6667887
vt 0.4284494 0.8332112
vt 0.2858364 0.8332112
vt 0.4286935 0.6667887
vt 0.5713065 0.6667887
vt 0.5713065 0.8332112
vt 0.4286935 0.8332112
vt 0.5715507 0.6667887
vt 0.7141637 0.6667887
vt 0.7141637 0.8332112
vt 0.5715507 0.8332112
vt 0.7144078 0.6667887
vt 0.8570208 0.6667887
vt 0.8570208 0.8332112
vt 0.7144078 0.8332112
vt 0.8572649 0.6667887
vt 0.9998779 0.6667887
vt 0.9998779 0.8332112
vt 0.8572649 0.8332112
vt 0.0001220703 0.5001221
vt 0.1427351 0.5001221
vt 0.1427351 0.6665446
vt 0.0001220703 0.6665446
vt 0.1429792 0.5001221
vt 0.2855922 0.5001221
vt 0.2855922 0.6665446
vt 0.1429792 0.6665446
vt 0.2858364 0.5001221
vt 0.4284494 0.5001221
vt 0.4284494 0.6665446
vt 0.2858364 0.6665446
vt 0.4286935 0.5001221
vt 0.5713065 0.5001221
vt 0.5713065 0.6665446
vt 0.4286935 0.6665446
vt 0.5715507 0.5001221
vt 0.7141637 0.5001221
vt 0.7141637 0.6665446
vt 0.5715507 0.6665446
vt 0.7144078 0.5001221
vt 0.8570208 0.5001221
vt 0.8570208 0.6665446
vt 0.7144078 0.6665446
vt 0.8572649 0.5001221
vt 0.9998779 0.5001221
vt 0.9998779 0.6665446
vt 0.8572649 0.6665446
vt 0.0001220703 0.3334554
vt 0.1427351 0.3334554
vt 0.1427351 0.4998779
vt 0.0001220703 0.4998779
vt 0.1429792 0.3334554
vt 0.2855922 0.3334554
vt 0.2855922 0.4998779
vt 0.1429792 0.4998779
vt 0.2858364 0.3334554
vt 0.4284494 0.3334554
vt 0.4284494 0.4998779
vt 0.2858364 0.4998779
vt 0.5715507 0.3334554
vt 0.7141637 0.3334554
vt 0.7141637 0.4998779
vt 0.5715507 0.4998779
vt 0.7144078 0.3334554
vt 0.8570208 0.3334554
vt 0.8570208 0.4998779
vt 0.7144078 0.4998779
vt 0.8572649 0.3334554
vt 0.9998779 0.3334554
vt 0.9998779 0.4998779
vt 0.8572649 0.4998779
vt 0.0001220703 0.1667888
vt 0.1427351 0.1667888
vt 0.1427351 0.3332112
vt 0.0001220703 0.3332112
vt 0.1429792 0.1667888
vt 0.2855922 0.1667888
vt 0.2855922 0.3332112
vt 0.1429792 0.3332112
vt 0.2858364 0.1667888
vt 0.4284494 0.1667888
vt 0.4284494 0.3332112
vt 0.2858364 0.3332112
vt 0.4286935 0.1667888
vt 0.5713065 0.1667888
vt 0.5713065 0.3332112
vt 0.4286935 0.3332112
vt 0.5715507 0.1667888
vt 0.7141637 0.1667888
vt 0.7141637 0.3332112
vt 0.5715507 0.3332112
vt 0.7144078 0.1667888
vt 0.8570208 0.1667888
vt 0.8570208 0.3332112
vt 0.7144078 0.3332112
vt 0.8572649 0.1667888
vt 0.9998779 0.1667888
vt 0.9998779 0.3332112
vt 0.8572649 0.3332112
vt 0.0001220703 0.0001220703
vt 0.1427351 0.0001220703
vt 0.1427351 0.1665446
vt 0.0001220703 0.1665446
vt 0.1429792 0.0001220703
vt 0.2855922 0.0001220703
vt 0.2855922 0.1665446
vt 0.1429792 0.1665446
vt 0.2858364 0.0001220703
vt 0.4284494 0.0001220703
vt 0.4284494 0.1665446
vt 0.2858364 0.1665446
vt 0.4286935 0.0001220703
vt 0.5713065 0.0001220703
vt 0.5713065 0.1665446
vt 0.4286935 0.1665446
vt 0.5715507 0.0001220703
vt 0.7141637 0.0001220703
vt 0.7141637 0.1665446
vt 0.5715507 0.1665446
vt 0.7144078 0.0001220703
vt 0.8570208 0.0001220703
vt 0.8570208 0.1665446
vt 0.7144078 0.1665446
vt 0.8572649 0.0001220703
vt 0.9998779 0.0001220703
vt 0.9998779 0.1665446
vt 0.8572649 0.1665446

# Normal
vn 0 0 -1

# Mesh description
g Pueblo_mesh_0007

# Faces
f 1/1/1 2/2/1 3/3/1 4/4/1
f 5/5/1 6/6/1 7/7/1 8/8/1
f 9/9/1 10/10/1 11/11/1 12/12/1
f 13/13/1 14/14/1 15/15/1 16/16/1
f 17/13/1 18/14/1 19/15/1 20/16/1
f 21/13/1 22/14/1 23/15/1 24/16/1
f 25/13/1 26/14/1 27/15/1 28/16/1
f 29/13/1 30/14/1 31/15/1 32/16/1
f 33/17/1 34/18/1 35/19/1 36/20/1
f 37/21/1 38/22/1 39/23/1 40/24/1
f 41/25/1 42/26/1 43/27/1 44/28/1
f 45/29/1 46/30/1 47/31/1 48/32/1
f 49/33/1 50/34/1 51/35/1 52/36/1
f 53/37/1 54/38/1 55/39/1 56/40/1
f 57/41/1 58/42/1 59/43/1 60/44/1
f 61/41/1 62/42/1 63/43/1 64/44/1
f 65/41/1 66/42/1 67/43/1 68/44/1
f 69/41/1 70/42/1 71/43/1 72/44/1
f 73/41/1 74/42/1 75/43/1 76/44/1
f 77/45/1 78/46/1 79/47/1 80/48/1
f 81/49/1 82/50/1 83/51/1 84/52/1
f 85/53/1 86/54/1 87/55/1 88/56/1
f 89/57/1 90/58/1 91/59/1 92/60/1
f 93/61/1 94/62/1 95/63/1 96/64/1
f 97/65/1 98/66/1 99/67/1 100/68/1
f 101/69/1 102/70/1 103/71/1 104/72/1
f 105/69/1 106/70/1 107/71/1 108/72/1
f 109/69/1 110/70/1 111/71/1 112/72/1
f 113/69/1 114/70/1 115/71/1 116/72/1
f 117/69/1 118/70/1 119/71/1 120/72/1
f 121/73/1 122/74/1 123/75/1 124/76/1
f 125/77/1 126/78/1 127/79/1 128/80/1
f 129/81/1 130/82/1 131/83/1 132/84/1
f 133/85/1 134/86/1 135/87/1 136/88/1
f 137/89/1 138/90/1 139/91/1 140/92/1
f 141/93/1 142/94/1 143/95/1 144/96/1
f 145/97/1 146/98/1 147/99/1 148/100/1
f 149/97/1 150/98/1 151/99/1 152/100/1
f 153/97/1 154/98/1 155/99/1 156/100/1
f 157/97/1 158/98/1 159/99/1 160/100/1
f 161/97/1 162/98/1 163/99/1 164/100/1
f 165/97/1 166/98/1 167/99/1 168/100/1
f 169/101/1 170/102/1 171/103/1 172/104/1
f 173/105/1 174/106/1 175/107/1 176/108/1
f 177/109/1 178/110/1 179/111/1 180/112/1
f 181/113/1 182/114/1 183/115/1 184/116/1
f 185/117/1 186/118/1 187/119/1 188/120/1
f 189/121/1 190/122/1 191/123/1 192/124/1
f 193/125/1 194/126/1 195/127/1 196/128/1
f 197/129/1 198/130/1 199/131/1 200/132/1
f 201/129/1 202/130/1 203/131/1 204/132/1
f 205/129/1 206/130/1 207/131/1 208/132/1
f 209/133/1 210/134/1 211/135/1 212/136/1
f 213/137/1 214/138/1 215/139/1 216/140/1
f 217/141/1 218/142/1 219/143/1 220/144/1
f 221/145/1 222/146/1 223/147/1 224/148/1
f 225/149/1 226/150/1 227/151/1 228/152/1
f 229/153/1 230/154/1 231/155/1 232/156/1
f 233/157/1 234/158/1 235/159/1 236/160/1
f 237/157/1 238/158/1 239/159/1 240/160/1
f 241/157/1 242/158/1 243/159/1 244/160/1
f 245/157/1 246/158/1 247/159/1 248/160/1
f 249/157/1 250/158/1 251/159/1 252/160/1
f 253/161/1 254/162/1 255/163/1 256/164/1

