# Tiled2Unity generated file. Do not modify by hand.
# Wavefront file for 'Pueblo_mesh_0027.obj'

# Vertices (Count = 28)
v -2288 -2912 0
v -2304 -2912 0
v -2304 -2896 0
v -2288 -2896 0
v -2048 -3072 0
v -2064 -3072 0
v -2064 -3056 0
v -2048 -3056 0
v -1840 -3168 0
v -1856 -3168 0
v -1856 -3152 0
v -1840 -3152 0
v -2416 -3296 0
v -2432 -3296 0
v -2432 -3280 0
v -2416 -3280 0
v -2704 -3360 0
v -2720 -3360 0
v -2720 -3344 0
v -2704 -3344 0
v -2288 -3408 0
v -2304 -3408 0
v -2304 -3392 0
v -2288 -3392 0
v -2192 -3520 0
v -2208 -3520 0
v -2208 -3504 0
v -2192 -3504 0

# Texture cooridinates (Count = 4)
vt 0.0001220703 0.6667887
vt 0.9998779 0.6667887
vt 0.9998779 0.9998779
vt 0.0001220703 0.9998779

# Normal
vn 0 0 -1

# Mesh description
g Pueblo_mesh_0027

# Faces
f 1/1/1 2/2/1 3/3/1 4/4/1
f 5/1/1 6/2/1 7/3/1 8/4/1
f 9/1/1 10/2/1 11/3/1 12/4/1
f 13/1/1 14/2/1 15/3/1 16/4/1
f 17/1/1 18/2/1 19/3/1 20/4/1
f 21/1/1 22/2/1 23/3/1 24/4/1
f 25/1/1 26/2/1 27/3/1 28/4/1

