# Tiled2Unity generated file. Do not modify by hand.
# Wavefront file for 'Pueblo_mesh_0026.obj'

# Vertices (Count = 56)
v -2288 -2928 0
v -2304 -2928 0
v -2304 -2912 0
v -2288 -2912 0
v -2288 -2944 0
v -2304 -2944 0
v -2304 -2928 0
v -2288 -2928 0
v -2048 -3088 0
v -2064 -3088 0
v -2064 -3072 0
v -2048 -3072 0
v -2048 -3104 0
v -2064 -3104 0
v -2064 -3088 0
v -2048 -3088 0
v -1840 -3184 0
v -1856 -3184 0
v -1856 -3168 0
v -1840 -3168 0
v -1840 -3200 0
v -1856 -3200 0
v -1856 -3184 0
v -1840 -3184 0
v -2416 -3312 0
v -2432 -3312 0
v -2432 -3296 0
v -2416 -3296 0
v -2416 -3328 0
v -2432 -3328 0
v -2432 -3312 0
v -2416 -3312 0
v -2704 -3376 0
v -2720 -3376 0
v -2720 -3360 0
v -2704 -3360 0
v -2704 -3392 0
v -2720 -3392 0
v -2720 -3376 0
v -2704 -3376 0
v -2288 -3424 0
v -2304 -3424 0
v -2304 -3408 0
v -2288 -3408 0
v -2288 -3440 0
v -2304 -3440 0
v -2304 -3424 0
v -2288 -3424 0
v -2192 -3536 0
v -2208 -3536 0
v -2208 -3520 0
v -2192 -3520 0
v -2192 -3552 0
v -2208 -3552 0
v -2208 -3536 0
v -2192 -3536 0

# Texture cooridinates (Count = 8)
vt 0.0001220703 0.3334554
vt 0.9998779 0.3334554
vt 0.9998779 0.6665446
vt 0.0001220703 0.6665446
vt 0.0001220703 0.0001220703
vt 0.9998779 0.0001220703
vt 0.9998779 0.3332112
vt 0.0001220703 0.3332112

# Normal
vn 0 0 -1

# Mesh description
g Pueblo_mesh_0026

# Faces
f 1/1/1 2/2/1 3/3/1 4/4/1
f 5/5/1 6/6/1 7/7/1 8/8/1
f 9/1/1 10/2/1 11/3/1 12/4/1
f 13/5/1 14/6/1 15/7/1 16/8/1
f 17/1/1 18/2/1 19/3/1 20/4/1
f 21/5/1 22/6/1 23/7/1 24/8/1
f 25/1/1 26/2/1 27/3/1 28/4/1
f 29/5/1 30/6/1 31/7/1 32/8/1
f 33/1/1 34/2/1 35/3/1 36/4/1
f 37/5/1 38/6/1 39/7/1 40/8/1
f 41/1/1 42/2/1 43/3/1 44/4/1
f 45/5/1 46/6/1 47/7/1 48/8/1
f 49/1/1 50/2/1 51/3/1 52/4/1
f 53/5/1 54/6/1 55/7/1 56/8/1

