# Tiled2Unity generated file. Do not modify by hand.
# Wavefront file for 'Pueblo_mesh_0025.obj'

# Vertices (Count = 16)
v -2288 -2752 0
v -2304 -2752 0
v -2304 -2736 0
v -2288 -2736 0
v -1616 -3200 0
v -1632 -3200 0
v -1632 -3184 0
v -1616 -3184 0
v -2864 -3232 0
v -2880 -3232 0
v -2880 -3216 0
v -2864 -3216 0
v -2272 -3760 0
v -2288 -3760 0
v -2288 -3744 0
v -2272 -3744 0

# Texture cooridinates (Count = 4)
vt 0.9998779 0.0001220703
vt 0.0001220703 0.0001220703
vt 0.0001220703 0.9998779
vt 0.9998779 0.9998779

# Normal
vn 0 0 -1

# Mesh description
g Pueblo_mesh_0025

# Faces
f 1/1/1 2/2/1 3/3/1 4/4/1
f 5/1/1 6/2/1 7/3/1 8/4/1
f 9/1/1 10/2/1 11/3/1 12/4/1
f 13/1/1 14/2/1 15/3/1 16/4/1

