# Tiled2Unity generated file. Do not modify by hand.
# Wavefront file for 'Bosque_mesh_0004.obj'

# Vertices (Count = 8)
v -864 -1920 0
v -896 -1920 0
v -896 -1888 0
v -864 -1888 0
v -864 -1952 0
v -896 -1952 0
v -896 -1920 0
v -864 -1920 0

# Texture cooridinates (Count = 8)
vt 0.09387207 0.7813721
vt 0.1248779 0.7813721
vt 0.1248779 0.8123779
vt 0.09387207 0.8123779
vt 0.09387207 0.7501221
vt 0.1248779 0.7501221
vt 0.1248779 0.7811279
vt 0.09387207 0.7811279

# Normal
vn 0 0 -1

# Mesh description
g Bosque_mesh_0004

# Faces
f 1/1/1 2/2/1 3/3/1 4/4/1
f 5/5/1 6/6/1 7/7/1 8/8/1

