# Tiled2Unity generated file. Do not modify by hand.
# Wavefront file for 'UnionDerecha_mesh_0002.obj'

# Vertices (Count = 48)
v -272 -2496 0
v -288 -2496 0
v -288 -2480 0
v -272 -2480 0
v -288 -2496 0
v -304 -2496 0
v -304 -2480 0
v -288 -2480 0
v -304 -2496 0
v -320 -2496 0
v -320 -2480 0
v -304 -2480 0
v -272 -2512 0
v -288 -2512 0
v -288 -2496 0
v -272 -2496 0
v -288 -2512 0
v -304 -2512 0
v -304 -2496 0
v -288 -2496 0
v -304 -2512 0
v -320 -2512 0
v -320 -2496 0
v -304 -2496 0
v -272 -2528 0
v -288 -2528 0
v -288 -2512 0
v -272 -2512 0
v -288 -2528 0
v -304 -2528 0
v -304 -2512 0
v -288 -2512 0
v -304 -2528 0
v -320 -2528 0
v -320 -2512 0
v -304 -2512 0
v -272 -2624 0
v -288 -2624 0
v -288 -2608 0
v -272 -2608 0
v -288 -2624 0
v -304 -2624 0
v -304 -2608 0
v -288 -2608 0
v -304 -2624 0
v -320 -2624 0
v -320 -2608 0
v -304 -2608 0

# Texture cooridinates (Count = 4)
vt 0.0001220703 0.0001220703
vt 0.9998779 0.0001220703
vt 0.9998779 0.9998779
vt 0.0001220703 0.9998779

# Normal
vn 0 0 -1

# Mesh description
g UnionDerecha_mesh_0002

# Faces
f 1/1/1 2/2/1 3/3/1 4/4/1
f 5/1/1 6/2/1 7/3/1 8/4/1
f 9/1/1 10/2/1 11/3/1 12/4/1
f 13/1/1 14/2/1 15/3/1 16/4/1
f 17/1/1 18/2/1 19/3/1 20/4/1
f 21/1/1 22/2/1 23/3/1 24/4/1
f 25/1/1 26/2/1 27/3/1 28/4/1
f 29/1/1 30/2/1 31/3/1 32/4/1
f 33/1/1 34/2/1 35/3/1 36/4/1
f 37/3/1 38/4/1 39/1/1 40/2/1
f 41/3/1 42/4/1 43/1/1 44/2/1
f 45/3/1 46/4/1 47/1/1 48/2/1

