# Tiled2Unity generated file. Do not modify by hand.
# Wavefront file for 'UnionDerecha_mesh_0007.obj'

# Vertices (Count = 8)
v -256 -2560 0
v -272 -2560 0
v -272 -2544 0
v -256 -2544 0
v -256 -2608 0
v -272 -2608 0
v -272 -2592 0
v -256 -2592 0

# Texture cooridinates (Count = 4)
vt 0.0001220703 0.0001220703
vt 0.9998779 0.0001220703
vt 0.9998779 0.9998779
vt 0.0001220703 0.9998779

# Normal
vn 0 0 -1

# Mesh description
g UnionDerecha_mesh_0007

# Faces
f 1/1/1 2/2/1 3/3/1 4/4/1
f 5/4/1 6/3/1 7/2/1 8/1/1

