# Tiled2Unity generated file. Do not modify by hand.
# Wavefront file for 'UnionDerecha_mesh_0009.obj'

# Vertices (Count = 24)
v -272 -2560 0
v -288 -2560 0
v -288 -2544 0
v -272 -2544 0
v -288 -2560 0
v -304 -2560 0
v -304 -2544 0
v -288 -2544 0
v -304 -2560 0
v -320 -2560 0
v -320 -2544 0
v -304 -2544 0
v -272 -2608 0
v -288 -2608 0
v -288 -2592 0
v -272 -2592 0
v -288 -2608 0
v -304 -2608 0
v -304 -2592 0
v -288 -2592 0
v -304 -2608 0
v -320 -2608 0
v -320 -2592 0
v -304 -2592 0

# Texture cooridinates (Count = 4)
vt 0.0001220703 0.0001220703
vt 0.9998779 0.0001220703
vt 0.9998779 0.9998779
vt 0.0001220703 0.9998779

# Normal
vn 0 0 -1

# Mesh description
g UnionDerecha_mesh_0009

# Faces
f 1/1/1 2/2/1 3/3/1 4/4/1
f 5/1/1 6/2/1 7/3/1 8/4/1
f 9/1/1 10/2/1 11/3/1 12/4/1
f 13/3/1 14/4/1 15/1/1 16/2/1
f 17/3/1 18/4/1 19/1/1 20/2/1
f 21/3/1 22/4/1 23/1/1 24/2/1

