# Tiled2Unity generated file. Do not modify by hand.
# Wavefront file for 'VillaRefrescante_mesh_0007.obj'

# Vertices (Count = 48)
v -1344 -928 0
v -1376 -928 0
v -1376 -896 0
v -1344 -896 0
v -1696 -928 0
v -1728 -928 0
v -1728 -896 0
v -1696 -896 0
v -1344 -960 0
v -1376 -960 0
v -1376 -928 0
v -1344 -928 0
v -1376 -960 0
v -1408 -960 0
v -1408 -928 0
v -1376 -928 0
v -1408 -960 0
v -1440 -960 0
v -1440 -928 0
v -1408 -928 0
v -1440 -960 0
v -1472 -960 0
v -1472 -928 0
v -1440 -928 0
v -1472 -960 0
v -1504 -960 0
v -1504 -928 0
v -1472 -928 0
v -1568 -960 0
v -1600 -960 0
v -1600 -928 0
v -1568 -928 0
v -1600 -960 0
v -1632 -960 0
v -1632 -928 0
v -1600 -928 0
v -1632 -960 0
v -1664 -960 0
v -1664 -928 0
v -1632 -928 0
v -1664 -960 0
v -1696 -960 0
v -1696 -928 0
v -1664 -928 0
v -1696 -960 0
v -1728 -960 0
v -1728 -928 0
v -1696 -928 0

# Texture cooridinates (Count = 20)
vt 0.0001220703 0.9063721
vt 0.03112793 0.9063721
vt 0.03112793 0.9373779
vt 0.0001220703 0.9373779
vt 0.06262207 0.9063721
vt 0.09362793 0.9063721
vt 0.09362793 0.9373779
vt 0.06262207 0.9373779
vt 0.8751221 0.9063721
vt 0.9061279 0.9063721
vt 0.9061279 0.9373779
vt 0.8751221 0.9373779
vt 0.9063721 0.9063721
vt 0.9373779 0.9063721
vt 0.9373779 0.9373779
vt 0.9063721 0.9373779
vt 0.8438721 0.9063721
vt 0.8748779 0.9063721
vt 0.8748779 0.9373779
vt 0.8438721 0.9373779

# Normal
vn 0 0 -1

# Mesh description
g VillaRefrescante_mesh_0007

# Faces
f 1/1/1 2/2/1 3/3/1 4/4/1
f 5/5/1 6/6/1 7/7/1 8/8/1
f 9/9/1 10/10/1 11/11/1 12/12/1
f 13/9/1 14/10/1 15/11/1 16/12/1
f 17/9/1 18/10/1 19/11/1 20/12/1
f 21/9/1 22/10/1 23/11/1 24/12/1
f 25/13/1 26/14/1 27/15/1 28/16/1
f 29/17/1 30/18/1 31/19/1 32/20/1
f 33/9/1 34/10/1 35/11/1 36/12/1
f 37/9/1 38/10/1 39/11/1 40/12/1
f 41/9/1 42/10/1 43/11/1 44/12/1
f 45/9/1 46/10/1 47/11/1 48/12/1

