# Tiled2Unity generated file. Do not modify by hand.
# Wavefront file for 'VillaRefrescante_mesh_0006.obj'

# Vertices (Count = 44)
v -1376 -928 0
v -1408 -928 0
v -1408 -896 0
v -1376 -896 0
v -1408 -928 0
v -1440 -928 0
v -1440 -896 0
v -1408 -896 0
v -1440 -928 0
v -1472 -928 0
v -1472 -896 0
v -1440 -896 0
v -1472 -928 0
v -1504 -928 0
v -1504 -896 0
v -1472 -896 0
v -1504 -928 0
v -1536 -928 0
v -1536 -896 0
v -1504 -896 0
v -1536 -928 0
v -1568 -928 0
v -1568 -896 0
v -1536 -896 0
v -1568 -928 0
v -1600 -928 0
v -1600 -896 0
v -1568 -896 0
v -1600 -928 0
v -1632 -928 0
v -1632 -896 0
v -1600 -896 0
v -1632 -928 0
v -1664 -928 0
v -1664 -896 0
v -1632 -896 0
v -1664 -928 0
v -1696 -928 0
v -1696 -896 0
v -1664 -896 0
v -1728 -960 0
v -1760 -960 0
v -1760 -928 0
v -1728 -928 0

# Texture cooridinates (Count = 8)
vt 0.03137207 0.9063721
vt 0.06237793 0.9063721
vt 0.06237793 0.9373779
vt 0.03137207 0.9373779
vt 0.8751221 0.9063721
vt 0.9061279 0.9063721
vt 0.9061279 0.9373779
vt 0.8751221 0.9373779

# Normal
vn 0 0 -1

# Mesh description
g VillaRefrescante_mesh_0006

# Faces
f 1/1/1 2/2/1 3/3/1 4/4/1
f 5/1/1 6/2/1 7/3/1 8/4/1
f 9/1/1 10/2/1 11/3/1 12/4/1
f 13/1/1 14/2/1 15/3/1 16/4/1
f 17/1/1 18/2/1 19/3/1 20/4/1
f 21/1/1 22/2/1 23/3/1 24/4/1
f 25/1/1 26/2/1 27/3/1 28/4/1
f 29/1/1 30/2/1 31/3/1 32/4/1
f 33/1/1 34/2/1 35/3/1 36/4/1
f 37/1/1 38/2/1 39/3/1 40/4/1
f 41/5/1 42/6/1 43/7/1 44/8/1

