# Tiled2Unity generated file. Do not modify by hand.
# Wavefront file for 'CasaBase_mesh_0001.obj'

# Vertices (Count = 652)
v -7168 -4096 0
v -7296 -4096 0
v -7296 -3968 0
v -7168 -3968 0
v -5760 -4352 0
v -5888 -4352 0
v -5888 -4224 0
v -5760 -4224 0
v -5888 -4352 0
v -6016 -4352 0
v -6016 -4224 0
v -5888 -4224 0
v -6016 -4352 0
v -6144 -4352 0
v -6144 -4224 0
v -6016 -4224 0
v -6144 -4352 0
v -6272 -4352 0
v -6272 -4224 0
v -6144 -4224 0
v -6272 -4352 0
v -6400 -4352 0
v -6400 -4224 0
v -6272 -4224 0
v -6400 -4352 0
v -6528 -4352 0
v -6528 -4224 0
v -6400 -4224 0
v -6528 -4352 0
v -6656 -4352 0
v -6656 -4224 0
v -6528 -4224 0
v -6656 -4352 0
v -6784 -4352 0
v -6784 -4224 0
v -6656 -4224 0
v -6784 -4352 0
v -6912 -4352 0
v -6912 -4224 0
v -6784 -4224 0
v -6912 -4352 0
v -7040 -4352 0
v -7040 -4224 0
v -6912 -4224 0
v -7040 -4352 0
v -7168 -4352 0
v -7168 -4224 0
v -7040 -4224 0
v -7168 -4352 0
v -7296 -4352 0
v -7296 -4224 0
v -7168 -4224 0
v -7296 -4352 0
v -7424 -4352 0
v -7424 -4224 0
v -7296 -4224 0
v -7424 -4352 0
v -7552 -4352 0
v -7552 -4224 0
v -7424 -4224 0
v -7552 -4352 0
v -7680 -4352 0
v -7680 -4224 0
v -7552 -4224 0
v -7680 -4352 0
v -7808 -4352 0
v -7808 -4224 0
v -7680 -4224 0
v -7808 -4352 0
v -7936 -4352 0
v -7936 -4224 0
v -7808 -4224 0
v -7936 -4352 0
v -8064 -4352 0
v -8064 -4224 0
v -7936 -4224 0
v -5760 -4480 0
v -5888 -4480 0
v -5888 -4352 0
v -5760 -4352 0
v -5888 -4480 0
v -6016 -4480 0
v -6016 -4352 0
v -5888 -4352 0
v -6016 -4480 0
v -6144 -4480 0
v -6144 -4352 0
v -6016 -4352 0
v -6144 -4480 0
v -6272 -4480 0
v -6272 -4352 0
v -6144 -4352 0
v -6272 -4480 0
v -6400 -4480 0
v -6400 -4352 0
v -6272 -4352 0
v -6400 -4480 0
v -6528 -4480 0
v -6528 -4352 0
v -6400 -4352 0
v -6528 -4480 0
v -6656 -4480 0
v -6656 -4352 0
v -6528 -4352 0
v -6656 -4480 0
v -6784 -4480 0
v -6784 -4352 0
v -6656 -4352 0
v -6784 -4480 0
v -6912 -4480 0
v -6912 -4352 0
v -6784 -4352 0
v -6912 -4480 0
v -7040 -4480 0
v -7040 -4352 0
v -6912 -4352 0
v -7040 -4480 0
v -7168 -4480 0
v -7168 -4352 0
v -7040 -4352 0
v -7168 -4480 0
v -7296 -4480 0
v -7296 -4352 0
v -7168 -4352 0
v -7296 -4480 0
v -7424 -4480 0
v -7424 -4352 0
v -7296 -4352 0
v -7424 -4480 0
v -7552 -4480 0
v -7552 -4352 0
v -7424 -4352 0
v -7552 -4480 0
v -7680 -4480 0
v -7680 -4352 0
v -7552 -4352 0
v -7680 -4480 0
v -7808 -4480 0
v -7808 -4352 0
v -7680 -4352 0
v -7808 -4480 0
v -7936 -4480 0
v -7936 -4352 0
v -7808 -4352 0
v -7936 -4480 0
v -8064 -4480 0
v -8064 -4352 0
v -7936 -4352 0
v -5760 -4608 0
v -5888 -4608 0
v -5888 -4480 0
v -5760 -4480 0
v -5888 -4608 0
v -6016 -4608 0
v -6016 -4480 0
v -5888 -4480 0
v -6016 -4608 0
v -6144 -4608 0
v -6144 -4480 0
v -6016 -4480 0
v -6144 -4608 0
v -6272 -4608 0
v -6272 -4480 0
v -6144 -4480 0
v -6272 -4608 0
v -6400 -4608 0
v -6400 -4480 0
v -6272 -4480 0
v -6400 -4608 0
v -6528 -4608 0
v -6528 -4480 0
v -6400 -4480 0
v -6528 -4608 0
v -6656 -4608 0
v -6656 -4480 0
v -6528 -4480 0
v -6656 -4608 0
v -6784 -4608 0
v -6784 -4480 0
v -6656 -4480 0
v -6784 -4608 0
v -6912 -4608 0
v -6912 -4480 0
v -6784 -4480 0
v -6912 -4608 0
v -7040 -4608 0
v -7040 -4480 0
v -6912 -4480 0
v -7040 -4608 0
v -7168 -4608 0
v -7168 -4480 0
v -7040 -4480 0
v -7168 -4608 0
v -7296 -4608 0
v -7296 -4480 0
v -7168 -4480 0
v -7296 -4608 0
v -7424 -4608 0
v -7424 -4480 0
v -7296 -4480 0
v -7424 -4608 0
v -7552 -4608 0
v -7552 -4480 0
v -7424 -4480 0
v -7552 -4608 0
v -7680 -4608 0
v -7680 -4480 0
v -7552 -4480 0
v -7680 -4608 0
v -7808 -4608 0
v -7808 -4480 0
v -7680 -4480 0
v -7808 -4608 0
v -7936 -4608 0
v -7936 -4480 0
v -7808 -4480 0
v -7936 -4608 0
v -8064 -4608 0
v -8064 -4480 0
v -7936 -4480 0
v -5760 -4736 0
v -5888 -4736 0
v -5888 -4608 0
v -5760 -4608 0
v -5888 -4736 0
v -6016 -4736 0
v -6016 -4608 0
v -5888 -4608 0
v -6016 -4736 0
v -6144 -4736 0
v -6144 -4608 0
v -6016 -4608 0
v -6144 -4736 0
v -6272 -4736 0
v -6272 -4608 0
v -6144 -4608 0
v -6272 -4736 0
v -6400 -4736 0
v -6400 -4608 0
v -6272 -4608 0
v -6400 -4736 0
v -6528 -4736 0
v -6528 -4608 0
v -6400 -4608 0
v -6528 -4736 0
v -6656 -4736 0
v -6656 -4608 0
v -6528 -4608 0
v -6656 -4736 0
v -6784 -4736 0
v -6784 -4608 0
v -6656 -4608 0
v -6784 -4736 0
v -6912 -4736 0
v -6912 -4608 0
v -6784 -4608 0
v -6912 -4736 0
v -7040 -4736 0
v -7040 -4608 0
v -6912 -4608 0
v -7040 -4736 0
v -7168 -4736 0
v -7168 -4608 0
v -7040 -4608 0
v -7168 -4736 0
v -7296 -4736 0
v -7296 -4608 0
v -7168 -4608 0
v -7296 -4736 0
v -7424 -4736 0
v -7424 -4608 0
v -7296 -4608 0
v -7424 -4736 0
v -7552 -4736 0
v -7552 -4608 0
v -7424 -4608 0
v -7552 -4736 0
v -7680 -4736 0
v -7680 -4608 0
v -7552 -4608 0
v -7680 -4736 0
v -7808 -4736 0
v -7808 -4608 0
v -7680 -4608 0
v -7808 -4736 0
v -7936 -4736 0
v -7936 -4608 0
v -7808 -4608 0
v -7936 -4736 0
v -8064 -4736 0
v -8064 -4608 0
v -7936 -4608 0
v -5760 -4864 0
v -5888 -4864 0
v -5888 -4736 0
v -5760 -4736 0
v -5888 -4864 0
v -6016 -4864 0
v -6016 -4736 0
v -5888 -4736 0
v -6016 -4864 0
v -6144 -4864 0
v -6144 -4736 0
v -6016 -4736 0
v -6144 -4864 0
v -6272 -4864 0
v -6272 -4736 0
v -6144 -4736 0
v -6272 -4864 0
v -6400 -4864 0
v -6400 -4736 0
v -6272 -4736 0
v -6400 -4864 0
v -6528 -4864 0
v -6528 -4736 0
v -6400 -4736 0
v -6528 -4864 0
v -6656 -4864 0
v -6656 -4736 0
v -6528 -4736 0
v -6656 -4864 0
v -6784 -4864 0
v -6784 -4736 0
v -6656 -4736 0
v -6784 -4864 0
v -6912 -4864 0
v -6912 -4736 0
v -6784 -4736 0
v -6912 -4864 0
v -7040 -4864 0
v -7040 -4736 0
v -6912 -4736 0
v -7040 -4864 0
v -7168 -4864 0
v -7168 -4736 0
v -7040 -4736 0
v -7168 -4864 0
v -7296 -4864 0
v -7296 -4736 0
v -7168 -4736 0
v -7296 -4864 0
v -7424 -4864 0
v -7424 -4736 0
v -7296 -4736 0
v -7424 -4864 0
v -7552 -4864 0
v -7552 -4736 0
v -7424 -4736 0
v -7552 -4864 0
v -7680 -4864 0
v -7680 -4736 0
v -7552 -4736 0
v -7680 -4864 0
v -7808 -4864 0
v -7808 -4736 0
v -7680 -4736 0
v -7808 -4864 0
v -7936 -4864 0
v -7936 -4736 0
v -7808 -4736 0
v -7936 -4864 0
v -8064 -4864 0
v -8064 -4736 0
v -7936 -4736 0
v -5760 -4992 0
v -5888 -4992 0
v -5888 -4864 0
v -5760 -4864 0
v -5888 -4992 0
v -6016 -4992 0
v -6016 -4864 0
v -5888 -4864 0
v -6016 -4992 0
v -6144 -4992 0
v -6144 -4864 0
v -6016 -4864 0
v -6144 -4992 0
v -6272 -4992 0
v -6272 -4864 0
v -6144 -4864 0
v -6272 -4992 0
v -6400 -4992 0
v -6400 -4864 0
v -6272 -4864 0
v -6400 -4992 0
v -6528 -4992 0
v -6528 -4864 0
v -6400 -4864 0
v -6528 -4992 0
v -6656 -4992 0
v -6656 -4864 0
v -6528 -4864 0
v -6656 -4992 0
v -6784 -4992 0
v -6784 -4864 0
v -6656 -4864 0
v -6784 -4992 0
v -6912 -4992 0
v -6912 -4864 0
v -6784 -4864 0
v -6912 -4992 0
v -7040 -4992 0
v -7040 -4864 0
v -6912 -4864 0
v -7040 -4992 0
v -7168 -4992 0
v -7168 -4864 0
v -7040 -4864 0
v -7168 -4992 0
v -7296 -4992 0
v -7296 -4864 0
v -7168 -4864 0
v -7296 -4992 0
v -7424 -4992 0
v -7424 -4864 0
v -7296 -4864 0
v -7424 -4992 0
v -7552 -4992 0
v -7552 -4864 0
v -7424 -4864 0
v -7552 -4992 0
v -7680 -4992 0
v -7680 -4864 0
v -7552 -4864 0
v -7680 -4992 0
v -7808 -4992 0
v -7808 -4864 0
v -7680 -4864 0
v -7808 -4992 0
v -7936 -4992 0
v -7936 -4864 0
v -7808 -4864 0
v -7936 -4992 0
v -8064 -4992 0
v -8064 -4864 0
v -7936 -4864 0
v -5760 -5120 0
v -5888 -5120 0
v -5888 -4992 0
v -5760 -4992 0
v -5888 -5120 0
v -6016 -5120 0
v -6016 -4992 0
v -5888 -4992 0
v -6016 -5120 0
v -6144 -5120 0
v -6144 -4992 0
v -6016 -4992 0
v -6144 -5120 0
v -6272 -5120 0
v -6272 -4992 0
v -6144 -4992 0
v -6272 -5120 0
v -6400 -5120 0
v -6400 -4992 0
v -6272 -4992 0
v -6400 -5120 0
v -6528 -5120 0
v -6528 -4992 0
v -6400 -4992 0
v -6528 -5120 0
v -6656 -5120 0
v -6656 -4992 0
v -6528 -4992 0
v -6656 -5120 0
v -6784 -5120 0
v -6784 -4992 0
v -6656 -4992 0
v -6784 -5120 0
v -6912 -5120 0
v -6912 -4992 0
v -6784 -4992 0
v -6912 -5120 0
v -7040 -5120 0
v -7040 -4992 0
v -6912 -4992 0
v -7040 -5120 0
v -7168 -5120 0
v -7168 -4992 0
v -7040 -4992 0
v -7168 -5120 0
v -7296 -5120 0
v -7296 -4992 0
v -7168 -4992 0
v -7296 -5120 0
v -7424 -5120 0
v -7424 -4992 0
v -7296 -4992 0
v -7424 -5120 0
v -7552 -5120 0
v -7552 -4992 0
v -7424 -4992 0
v -7552 -5120 0
v -7680 -5120 0
v -7680 -4992 0
v -7552 -4992 0
v -7680 -5120 0
v -7808 -5120 0
v -7808 -4992 0
v -7680 -4992 0
v -7808 -5120 0
v -7936 -5120 0
v -7936 -4992 0
v -7808 -4992 0
v -7936 -5120 0
v -8064 -5120 0
v -8064 -4992 0
v -7936 -4992 0
v -5760 -5248 0
v -5888 -5248 0
v -5888 -5120 0
v -5760 -5120 0
v -5888 -5248 0
v -6016 -5248 0
v -6016 -5120 0
v -5888 -5120 0
v -6016 -5248 0
v -6144 -5248 0
v -6144 -5120 0
v -6016 -5120 0
v -6144 -5248 0
v -6272 -5248 0
v -6272 -5120 0
v -6144 -5120 0
v -6272 -5248 0
v -6400 -5248 0
v -6400 -5120 0
v -6272 -5120 0
v -6400 -5248 0
v -6528 -5248 0
v -6528 -5120 0
v -6400 -5120 0
v -6528 -5248 0
v -6656 -5248 0
v -6656 -5120 0
v -6528 -5120 0
v -6656 -5248 0
v -6784 -5248 0
v -6784 -5120 0
v -6656 -5120 0
v -6784 -5248 0
v -6912 -5248 0
v -6912 -5120 0
v -6784 -5120 0
v -6912 -5248 0
v -7040 -5248 0
v -7040 -5120 0
v -6912 -5120 0
v -7040 -5248 0
v -7168 -5248 0
v -7168 -5120 0
v -7040 -5120 0
v -7168 -5248 0
v -7296 -5248 0
v -7296 -5120 0
v -7168 -5120 0
v -7296 -5248 0
v -7424 -5248 0
v -7424 -5120 0
v -7296 -5120 0
v -7424 -5248 0
v -7552 -5248 0
v -7552 -5120 0
v -7424 -5120 0
v -7552 -5248 0
v -7680 -5248 0
v -7680 -5120 0
v -7552 -5120 0
v -7680 -5248 0
v -7808 -5248 0
v -7808 -5120 0
v -7680 -5120 0
v -7808 -5248 0
v -7936 -5248 0
v -7936 -5120 0
v -7808 -5120 0
v -7936 -5248 0
v -8064 -5248 0
v -8064 -5120 0
v -7936 -5120 0
v -5760 -5376 0
v -5888 -5376 0
v -5888 -5248 0
v -5760 -5248 0
v -5888 -5376 0
v -6016 -5376 0
v -6016 -5248 0
v -5888 -5248 0
v -6016 -5376 0
v -6144 -5376 0
v -6144 -5248 0
v -6016 -5248 0
v -6144 -5376 0
v -6272 -5376 0
v -6272 -5248 0
v -6144 -5248 0
v -6272 -5376 0
v -6400 -5376 0
v -6400 -5248 0
v -6272 -5248 0
v -6400 -5376 0
v -6528 -5376 0
v -6528 -5248 0
v -6400 -5248 0
v -6528 -5376 0
v -6656 -5376 0
v -6656 -5248 0
v -6528 -5248 0
v -6656 -5376 0
v -6784 -5376 0
v -6784 -5248 0
v -6656 -5248 0
v -6784 -5376 0
v -6912 -5376 0
v -6912 -5248 0
v -6784 -5248 0
v -6912 -5376 0
v -7040 -5376 0
v -7040 -5248 0
v -6912 -5248 0
v -7040 -5376 0
v -7168 -5376 0
v -7168 -5248 0
v -7040 -5248 0
v -7168 -5376 0
v -7296 -5376 0
v -7296 -5248 0
v -7168 -5248 0
v -7296 -5376 0
v -7424 -5376 0
v -7424 -5248 0
v -7296 -5248 0
v -7424 -5376 0
v -7552 -5376 0
v -7552 -5248 0
v -7424 -5248 0
v -7552 -5376 0
v -7680 -5376 0
v -7680 -5248 0
v -7552 -5248 0
v -7680 -5376 0
v -7808 -5376 0
v -7808 -5248 0
v -7680 -5248 0
v -7808 -5376 0
v -7936 -5376 0
v -7936 -5248 0
v -7808 -5248 0
v -7936 -5376 0
v -8064 -5376 0
v -8064 -5248 0
v -7936 -5248 0

# Texture cooridinates (Count = 20)
vt 0.7144078 0.3334554
vt 0.8570208 0.3334554
vt 0.8570208 0.4443223
vt 0.7144078 0.4443223
vt 0.5715507 0.1112332
vt 0.7141637 0.1112332
vt 0.7141637 0.2221001
vt 0.5715507 0.2221001
vt 0.7144078 0.1112332
vt 0.8570208 0.1112332
vt 0.8570208 0.2221001
vt 0.7144078 0.2221001
vt 0.5715507 0.0001220703
vt 0.7141637 0.0001220703
vt 0.7141637 0.110989
vt 0.5715507 0.110989
vt 0.7144078 0.0001220703
vt 0.8570208 0.0001220703
vt 0.8570208 0.110989
vt 0.7144078 0.110989

# Normal
vn 0 0 -1

# Mesh description
g CasaBase_mesh_0001

# Faces
f 1/1/1 2/2/1 3/3/1 4/4/1
f 5/5/1 6/6/1 7/7/1 8/8/1
f 9/9/1 10/10/1 11/11/1 12/12/1
f 13/5/1 14/6/1 15/7/1 16/8/1
f 17/9/1 18/10/1 19/11/1 20/12/1
f 21/5/1 22/6/1 23/7/1 24/8/1
f 25/9/1 26/10/1 27/11/1 28/12/1
f 29/5/1 30/6/1 31/7/1 32/8/1
f 33/9/1 34/10/1 35/11/1 36/12/1
f 37/5/1 38/6/1 39/7/1 40/8/1
f 41/9/1 42/10/1 43/11/1 44/12/1
f 45/5/1 46/6/1 47/7/1 48/8/1
f 49/9/1 50/10/1 51/11/1 52/12/1
f 53/5/1 54/6/1 55/7/1 56/8/1
f 57/9/1 58/10/1 59/11/1 60/12/1
f 61/5/1 62/6/1 63/7/1 64/8/1
f 65/9/1 66/10/1 67/11/1 68/12/1
f 69/5/1 70/6/1 71/7/1 72/8/1
f 73/9/1 74/10/1 75/11/1 76/12/1
f 77/13/1 78/14/1 79/15/1 80/16/1
f 81/17/1 82/18/1 83/19/1 84/20/1
f 85/13/1 86/14/1 87/15/1 88/16/1
f 89/17/1 90/18/1 91/19/1 92/20/1
f 93/13/1 94/14/1 95/15/1 96/16/1
f 97/17/1 98/18/1 99/19/1 100/20/1
f 101/13/1 102/14/1 103/15/1 104/16/1
f 105/17/1 106/18/1 107/19/1 108/20/1
f 109/13/1 110/14/1 111/15/1 112/16/1
f 113/17/1 114/18/1 115/19/1 116/20/1
f 117/13/1 118/14/1 119/15/1 120/16/1
f 121/17/1 122/18/1 123/19/1 124/20/1
f 125/13/1 126/14/1 127/15/1 128/16/1
f 129/17/1 130/18/1 131/19/1 132/20/1
f 133/13/1 134/14/1 135/15/1 136/16/1
f 137/17/1 138/18/1 139/19/1 140/20/1
f 141/13/1 142/14/1 143/15/1 144/16/1
f 145/17/1 146/18/1 147/19/1 148/20/1
f 149/5/1 150/6/1 151/7/1 152/8/1
f 153/9/1 154/10/1 155/11/1 156/12/1
f 157/5/1 158/6/1 159/7/1 160/8/1
f 161/9/1 162/10/1 163/11/1 164/12/1
f 165/5/1 166/6/1 167/7/1 168/8/1
f 169/9/1 170/10/1 171/11/1 172/12/1
f 173/5/1 174/6/1 175/7/1 176/8/1
f 177/9/1 178/10/1 179/11/1 180/12/1
f 181/5/1 182/6/1 183/7/1 184/8/1
f 185/9/1 186/10/1 187/11/1 188/12/1
f 189/5/1 190/6/1 191/7/1 192/8/1
f 193/9/1 194/10/1 195/11/1 196/12/1
f 197/5/1 198/6/1 199/7/1 200/8/1
f 201/9/1 202/10/1 203/11/1 204/12/1
f 205/5/1 206/6/1 207/7/1 208/8/1
f 209/9/1 210/10/1 211/11/1 212/12/1
f 213/5/1 214/6/1 215/7/1 216/8/1
f 217/9/1 218/10/1 219/11/1 220/12/1
f 221/13/1 222/14/1 223/15/1 224/16/1
f 225/17/1 226/18/1 227/19/1 228/20/1
f 229/13/1 230/14/1 231/15/1 232/16/1
f 233/17/1 234/18/1 235/19/1 236/20/1
f 237/13/1 238/14/1 239/15/1 240/16/1
f 241/17/1 242/18/1 243/19/1 244/20/1
f 245/13/1 246/14/1 247/15/1 248/16/1
f 249/17/1 250/18/1 251/19/1 252/20/1
f 253/13/1 254/14/1 255/15/1 256/16/1
f 257/17/1 258/18/1 259/19/1 260/20/1
f 261/13/1 262/14/1 263/15/1 264/16/1
f 265/17/1 266/18/1 267/19/1 268/20/1
f 269/13/1 270/14/1 271/15/1 272/16/1
f 273/17/1 274/18/1 275/19/1 276/20/1
f 277/13/1 278/14/1 279/15/1 280/16/1
f 281/17/1 282/18/1 283/19/1 284/20/1
f 285/13/1 286/14/1 287/15/1 288/16/1
f 289/17/1 290/18/1 291/19/1 292/20/1
f 293/5/1 294/6/1 295/7/1 296/8/1
f 297/9/1 298/10/1 299/11/1 300/12/1
f 301/5/1 302/6/1 303/7/1 304/8/1
f 305/9/1 306/10/1 307/11/1 308/12/1
f 309/5/1 310/6/1 311/7/1 312/8/1
f 313/9/1 314/10/1 315/11/1 316/12/1
f 317/5/1 318/6/1 319/7/1 320/8/1
f 321/9/1 322/10/1 323/11/1 324/12/1
f 325/5/1 326/6/1 327/7/1 328/8/1
f 329/9/1 330/10/1 331/11/1 332/12/1
f 333/5/1 334/6/1 335/7/1 336/8/1
f 337/9/1 338/10/1 339/11/1 340/12/1
f 341/5/1 342/6/1 343/7/1 344/8/1
f 345/9/1 346/10/1 347/11/1 348/12/1
f 349/5/1 350/6/1 351/7/1 352/8/1
f 353/9/1 354/10/1 355/11/1 356/12/1
f 357/5/1 358/6/1 359/7/1 360/8/1
f 361/9/1 362/10/1 363/11/1 364/12/1
f 365/13/1 366/14/1 367/15/1 368/16/1
f 369/17/1 370/18/1 371/19/1 372/20/1
f 373/13/1 374/14/1 375/15/1 376/16/1
f 377/17/1 378/18/1 379/19/1 380/20/1
f 381/13/1 382/14/1 383/15/1 384/16/1
f 385/17/1 386/18/1 387/19/1 388/20/1
f 389/13/1 390/14/1 391/15/1 392/16/1
f 393/17/1 394/18/1 395/19/1 396/20/1
f 397/13/1 398/14/1 399/15/1 400/16/1
f 401/17/1 402/18/1 403/19/1 404/20/1
f 405/13/1 406/14/1 407/15/1 408/16/1
f 409/17/1 410/18/1 411/19/1 412/20/1
f 413/13/1 414/14/1 415/15/1 416/16/1
f 417/17/1 418/18/1 419/19/1 420/20/1
f 421/13/1 422/14/1 423/15/1 424/16/1
f 425/17/1 426/18/1 427/19/1 428/20/1
f 429/13/1 430/14/1 431/15/1 432/16/1
f 433/17/1 434/18/1 435/19/1 436/20/1
f 437/5/1 438/6/1 439/7/1 440/8/1
f 441/9/1 442/10/1 443/11/1 444/12/1
f 445/5/1 446/6/1 447/7/1 448/8/1
f 449/9/1 450/10/1 451/11/1 452/12/1
f 453/5/1 454/6/1 455/7/1 456/8/1
f 457/9/1 458/10/1 459/11/1 460/12/1
f 461/5/1 462/6/1 463/7/1 464/8/1
f 465/9/1 466/10/1 467/11/1 468/12/1
f 469/5/1 470/6/1 471/7/1 472/8/1
f 473/9/1 474/10/1 475/11/1 476/12/1
f 477/5/1 478/6/1 479/7/1 480/8/1
f 481/9/1 482/10/1 483/11/1 484/12/1
f 485/5/1 486/6/1 487/7/1 488/8/1
f 489/9/1 490/10/1 491/11/1 492/12/1
f 493/5/1 494/6/1 495/7/1 496/8/1
f 497/9/1 498/10/1 499/11/1 500/12/1
f 501/5/1 502/6/1 503/7/1 504/8/1
f 505/9/1 506/10/1 507/11/1 508/12/1
f 509/13/1 510/14/1 511/15/1 512/16/1
f 513/17/1 514/18/1 515/19/1 516/20/1
f 517/13/1 518/14/1 519/15/1 520/16/1
f 521/17/1 522/18/1 523/19/1 524/20/1
f 525/13/1 526/14/1 527/15/1 528/16/1
f 529/17/1 530/18/1 531/19/1 532/20/1
f 533/13/1 534/14/1 535/15/1 536/16/1
f 537/17/1 538/18/1 539/19/1 540/20/1
f 541/13/1 542/14/1 543/15/1 544/16/1
f 545/17/1 546/18/1 547/19/1 548/20/1
f 549/13/1 550/14/1 551/15/1 552/16/1
f 553/17/1 554/18/1 555/19/1 556/20/1
f 557/13/1 558/14/1 559/15/1 560/16/1
f 561/17/1 562/18/1 563/19/1 564/20/1
f 565/13/1 566/14/1 567/15/1 568/16/1
f 569/17/1 570/18/1 571/19/1 572/20/1
f 573/13/1 574/14/1 575/15/1 576/16/1
f 577/17/1 578/18/1 579/19/1 580/20/1
f 581/5/1 582/6/1 583/7/1 584/8/1
f 585/9/1 586/10/1 587/11/1 588/12/1
f 589/5/1 590/6/1 591/7/1 592/8/1
f 593/9/1 594/10/1 595/11/1 596/12/1
f 597/5/1 598/6/1 599/7/1 600/8/1
f 601/9/1 602/10/1 603/11/1 604/12/1
f 605/5/1 606/6/1 607/7/1 608/8/1
f 609/9/1 610/10/1 611/11/1 612/12/1
f 613/5/1 614/6/1 615/7/1 616/8/1
f 617/9/1 618/10/1 619/11/1 620/12/1
f 621/5/1 622/6/1 623/7/1 624/8/1
f 625/9/1 626/10/1 627/11/1 628/12/1
f 629/5/1 630/6/1 631/7/1 632/8/1
f 633/9/1 634/10/1 635/11/1 636/12/1
f 637/5/1 638/6/1 639/7/1 640/8/1
f 641/9/1 642/10/1 643/11/1 644/12/1
f 645/5/1 646/6/1 647/7/1 648/8/1
f 649/9/1 650/10/1 651/11/1 652/12/1

