# Tiled2Unity generated file. Do not modify by hand.
# Wavefront file for 'MuelleDeMaquinas_mesh_0004.obj'

# Vertices (Count = 32)
v -2304 -1824 0
v -2336 -1824 0
v -2336 -1792 0
v -2304 -1792 0
v -2304 -1856 0
v -2336 -1856 0
v -2336 -1824 0
v -2304 -1824 0
v -2304 -1888 0
v -2336 -1888 0
v -2336 -1856 0
v -2304 -1856 0
v -2304 -1920 0
v -2336 -1920 0
v -2336 -1888 0
v -2304 -1888 0
v -2304 -1952 0
v -2336 -1952 0
v -2336 -1920 0
v -2304 -1920 0
v -2304 -1984 0
v -2336 -1984 0
v -2336 -1952 0
v -2304 -1952 0
v -3072 -2368 0
v -3104 -2368 0
v -3104 -2336 0
v -3072 -2336 0
v -3072 -2816 0
v -3104 -2816 0
v -3104 -2784 0
v -3072 -2784 0

# Texture cooridinates (Count = 20)
vt 0.0001220703 0.1876221
vt 0.03112793 0.1876221
vt 0.03112793 0.2186279
vt 0.0001220703 0.2186279
vt 0.0001220703 0.1563721
vt 0.03112793 0.1563721
vt 0.03112793 0.1873779
vt 0.0001220703 0.1873779
vt 0.0001220703 0.1251221
vt 0.03112793 0.1251221
vt 0.03112793 0.1561279
vt 0.0001220703 0.1561279
vt 0.0001220703 0.06262207
vt 0.03112793 0.06262207
vt 0.03112793 0.09362793
vt 0.0001220703 0.09362793
vt 0.3438721 0.3751221
vt 0.3748779 0.3751221
vt 0.3748779 0.4061279
vt 0.3438721 0.4061279

# Normal
vn 0 0 -1

# Mesh description
g MuelleDeMaquinas_mesh_0004

# Faces
f 1/1/1 2/2/1 3/3/1 4/4/1
f 5/5/1 6/6/1 7/7/1 8/8/1
f 9/5/1 10/6/1 11/7/1 12/8/1
f 13/5/1 14/6/1 15/7/1 16/8/1
f 17/9/1 18/10/1 19/11/1 20/12/1
f 21/13/1 22/14/1 23/15/1 24/16/1
f 25/17/1 26/18/1 27/19/1 28/20/1
f 29/17/1 30/18/1 31/19/1 32/20/1

